<?xml version="1.0" encoding="UTF-8"?>
<svg id="Layer_1" data-name="Layer 1" xmlns="http://www.w3.org/2000/svg" viewBox="0 0 103.31 34.73">
  <defs>
    <style>
      .cls-1 {
        fill: #006b99;
        fill-rule: evenodd;
      }

      .cls-2 {
        fill: #2d2d2d;
      }
    </style>
  </defs>
  <path class="cls-2" d="M43.15,29.08l-5.59-19.95h3.86l3.57,14.66h.18l3.81-14.66h3.51l3.82,14.67h.17l3.57-14.67h3.86l-5.59,19.95h-3.54l-3.97-14h-.15l-3.98,14h-3.54ZM69.5,20.31v8.77h-3.5V9.13h3.43v7.53h.17c.35-.84.89-1.51,1.62-2,.74-.49,1.67-.74,2.81-.74,1.03,0,1.93.22,2.7.65.77.44,1.36,1.07,1.78,1.91.43.84.64,1.86.64,3.07v9.53h-3.5v-8.98c0-1.01-.26-1.79-.77-2.35-.51-.57-1.23-.85-2.15-.85-.62,0-1.17.14-1.66.41-.48.27-.86.65-1.14,1.16-.27.51-.41,1.12-.41,1.84ZM82.44,29.08v-14.96h3.5v14.96h-3.5ZM84.2,11.99c-.56,0-1.03-.19-1.43-.56-.4-.38-.6-.83-.6-1.35s.2-.98.6-1.35c.4-.38.88-.57,1.43-.57s1.04.19,1.43.57c.4.37.6.82.6,1.35s-.2.98-.6,1.35c-.39.37-.87.56-1.43.56ZM89.27,29.08v-14.96h3.4v2.49h.15c.27-.86.74-1.53,1.39-2,.66-.47,1.42-.71,2.27-.71.19,0,.41,0,.65.03.25.01.45.04.61.07v3.24c-.15-.05-.38-.1-.71-.14-.32-.05-.62-.07-.92-.07-.64,0-1.21.14-1.72.42-.5.27-.9.65-1.19,1.14-.29.49-.44,1.05-.44,1.69v8.8h-3.5ZM103.31,9.13v19.95h-3.5V9.13h3.5Z"/>
  <path class="cls-1" d="M18.53,5.11c-1.87-.78-3.89-1.11-5.9-.98-2.02.13-3.98.73-5.73,1.75l-1.77,1.03-2.04-3.55,1.77-1.03C7.15.99,9.72.21,12.36.04c2.64-.17,5.29.27,7.73,1.28,2.44,1.02,4.62,2.59,6.37,4.59,1.74,2,3.01,4.38,3.69,6.96.68,2.57.77,5.27.26,7.88-.52,2.61-1.62,5.07-3.23,7.18s-3.68,3.83-6.06,5c-2.37,1.18-5.43,1.79-7.63,1.79s-3.48-.33-5.16-1.03c-1.64-.68-3.12-1.68-4.38-2.94-1.25-1.26-2.25-2.76-2.92-4.4-.68-1.65-1.03-3.41-1.03-5.2s.35-3.55,1.03-5.2c.68-1.65,1.67-3.14,2.92-4.4,1.25-1.26,2.74-2.26,4.38-2.94,1.64-.68,3.39-1.03,5.16-1.03s3.53.35,5.16,1.03c1.64.68,3.12,1.68,4.38,2.94,1.25,1.26,2.25,2.76,2.92,4.4.29.71.52,1.44.69,2.18.08-1.41-.06-2.83-.43-4.21-.52-1.96-1.49-3.78-2.82-5.31-1.33-1.53-3-2.73-4.86-3.51ZM5.34,25.9c.23-4.41,3.86-7.92,8.3-7.92s7.79,3.24,8.26,7.41c.1-.2.19-.41.28-.61.47-1.15.72-2.38.72-3.63s-.24-2.48-.72-3.62c-.47-1.15-1.17-2.19-2.04-3.07-.87-.88-1.91-1.58-3.05-2.05-1.14-.48-2.37-.72-3.6-.72s-2.46.24-3.6.72c-1.14.48-2.18,1.17-3.05,2.05-.87.88-1.57,1.92-2.04,3.07-.47,1.15-.72,2.38-.72,3.62s.24,2.48.72,3.63c.16.39.34.76.55,1.12ZM17.88,26.35c0,2.35-1.9,4.26-4.23,4.26s-4.23-1.91-4.23-4.26,1.9-4.26,4.23-4.26,4.23,1.91,4.23,4.26Z"/>
</svg>